<svg width="250" height="250" viewBox="0 0 250 250" fill="none" xmlns="http://www.w3.org/2000/svg">
<rect width="250" height="250" fill="#035B21"/>
<path d="M124.948 63.5994C114.278 63.5994 103.848 66.7635 94.9762 72.6913C86.1045 78.6192 79.1896 87.0448 75.1064 96.9025C71.0232 106.76 69.955 117.607 72.0366 128.072C74.1182 138.537 79.2564 148.149 86.8012 155.694C94.3459 163.239 103.958 168.377 114.423 170.459C124.888 172.54 135.735 171.472 145.593 167.389C155.451 163.305 163.876 156.391 169.804 147.519C175.732 138.647 178.896 128.217 178.896 117.547C178.896 103.239 173.212 89.5176 163.095 79.4004C152.978 69.2832 139.256 63.5994 124.948 63.5994ZM124.948 141.367C121.946 141.286 119.034 140.32 116.577 138.592C114.12 136.864 112.228 134.45 111.136 131.652C110.044 128.854 109.802 125.795 110.44 122.86C111.077 119.925 112.566 117.243 114.72 115.15C116.874 113.056 119.598 111.645 122.55 111.092C125.502 110.538 128.552 110.868 131.318 112.039C134.084 113.21 136.443 115.171 138.1 117.677C139.757 120.182 140.639 123.12 140.634 126.124C140.605 128.155 140.177 130.16 139.373 132.025C138.569 133.89 137.405 135.579 135.949 136.995C134.492 138.41 132.771 139.525 130.883 140.275C128.996 141.025 126.979 141.397 124.948 141.367Z" fill="#FBFFF1" stroke="#FBFFF1" stroke-width="5.40805" stroke-miterlimit="10"/>
<path d="M124.948 80.3372C112.642 80.1821 100.778 84.9165 91.9599 93.501C83.1419 102.086 78.0913 113.818 77.9163 126.124C77.9163 134.977 83.0621 146.818 89.9785 158.631C98.6337 172.944 108.392 186.56 119.166 199.354C119.872 200.207 120.757 200.894 121.759 201.365C122.761 201.836 123.855 202.08 124.962 202.08C126.069 202.08 127.162 201.836 128.164 201.365C129.166 200.894 130.052 200.207 130.758 199.354C141.403 186.554 151.094 172.989 159.751 158.769C166.751 146.901 171.979 135.032 171.979 126.124C171.812 113.816 166.763 102.079 157.943 93.4926C149.124 84.9065 137.256 80.1747 124.948 80.3372ZM124.948 110.769C127.951 110.846 130.864 111.806 133.324 113.529C135.784 115.253 137.681 117.663 138.778 120.46C139.874 123.256 140.122 126.314 139.49 129.25C138.857 132.187 137.373 134.872 135.223 136.969C133.073 139.066 130.351 140.482 127.4 141.041C124.449 141.599 121.398 141.275 118.63 140.109C115.862 138.942 113.5 136.986 111.838 134.483C110.177 131.981 109.29 129.044 109.289 126.041C109.369 121.956 111.059 118.068 113.992 115.223C116.925 112.379 120.862 110.808 124.948 110.852V110.769Z" fill="#035B21" stroke="#FBFFF1" stroke-width="5.40805" stroke-miterlimit="10"/>
<path d="M131.864 53.9164C131.864 50.0966 128.768 47 124.948 47C121.128 47 118.032 50.0966 118.032 53.9164V73.2823C118.032 77.1022 121.128 80.1987 124.948 80.1987C128.768 80.1987 131.864 77.1022 131.864 73.2823V53.9164Z" fill="#FBFFF1" stroke="#FBFFF1" stroke-width="5.40805" stroke-miterlimit="10"/>
</svg>
