<svg width="375" height="812" viewBox="0 0 375 812" fill="none" xmlns="http://www.w3.org/2000/svg">
<path d="M67.4918 542.567C61.5043 556.202 81.2129 689.958 91.8156 755.132L-85 802V-71.4557L227 -133C195.66 -90.5502 124.746 -0.727081 91.8156 18.9671C50.6522 43.5848 79.6537 197.446 67.4918 214.489C55.3298 231.532 91.8156 439.835 91.8156 466.82C91.8156 493.805 74.976 525.524 67.4918 542.567Z" fill="#EBFFE2" stroke="#035B21" stroke-width="3"/>
<path d="M421.797 518.39C415.079 531.679 427.503 666.308 434.555 731.961L312.5 752.5L260.71 724.5L275 447.5L260.71 147.039L302.834 -103L617.713 -147.531C584.116 -106.844 508.435 -20.9993 474.485 -3.12031C432.047 19.2285 452.66 174.436 439.592 190.794C426.523 207.152 451.657 417.129 450.193 444.074C448.73 471.019 430.194 501.778 421.797 518.39Z" fill="#EBFFE2" stroke="#035B21" stroke-width="3"/>
<path fill-rule="evenodd" clip-rule="evenodd" d="M322.5 823C333.833 754.167 354.9 612.9 348.5 598.5C347.303 595.807 345.882 592.766 344.331 589.448C336.165 571.975 324.393 546.786 322.705 523.904L312.942 532C289.76 517.731 215.277 491.568 102.803 501.065C-9.67154 510.561 -22.7802 466.173 -15.2752 442.791L176 432L282 442.791L325.95 432L333.006 434.536C343.495 360.281 356.93 263.672 348.5 252C343.879 245.601 344.818 220.943 345.971 190.648C348.062 135.719 350.859 62.2576 322.5 45.5C287.3 24.7 211.5 -70.1667 178 -115L511.5 -50V872.5L322.5 823Z" fill="#68B186"/>
<path d="M348.5 598.5L349.871 597.891L349.871 597.891L348.5 598.5ZM322.5 823L321.02 822.756L320.798 824.105L322.12 824.451L322.5 823ZM344.331 589.448L345.69 588.813L345.69 588.813L344.331 589.448ZM322.705 523.904L324.201 523.794L323.986 520.893L321.747 522.75L322.705 523.904ZM312.942 532L312.155 533.277L313.071 533.841L313.899 533.155L312.942 532ZM-15.2752 442.791L-15.3597 441.294L-16.3885 441.352L-16.7035 442.333L-15.2752 442.791ZM176 432L176.152 430.508L176.034 430.496L175.916 430.502L176 432ZM282 442.791L281.848 444.284L282.106 444.31L282.358 444.248L282 442.791ZM325.95 432L326.458 430.588L326.032 430.435L325.593 430.543L325.95 432ZM333.006 434.536L332.499 435.948L334.234 436.572L334.492 434.746L333.006 434.536ZM348.5 252L349.716 251.122L349.716 251.122L348.5 252ZM345.971 190.648L347.47 190.705L347.47 190.705L345.971 190.648ZM322.5 45.5L321.737 46.7914L321.737 46.7914L322.5 45.5ZM178 -115L178.287 -116.472L174.472 -117.216L176.798 -114.102L178 -115ZM511.5 -50H513V-51.2359L511.787 -51.4723L511.5 -50ZM511.5 872.5L511.12 873.951L513 874.443V872.5H511.5ZM347.129 599.109C347.43 599.786 347.705 600.988 347.895 602.796C348.083 604.568 348.178 606.802 348.185 609.462C348.199 614.78 347.86 621.703 347.236 629.859C345.986 646.165 343.603 667.294 340.662 690.146C334.782 735.844 326.685 788.35 321.02 822.756L323.98 823.244C329.648 788.816 337.751 736.273 343.638 690.529C346.581 667.66 348.972 646.471 350.227 630.088C350.854 621.899 351.2 614.886 351.185 609.454C351.178 606.738 351.081 604.393 350.879 602.481C350.681 600.603 350.37 599.014 349.871 597.891L347.129 599.109ZM342.972 590.083C344.525 593.405 345.939 596.432 347.129 599.109L349.871 597.891C348.667 595.182 347.239 592.128 345.69 588.813L342.972 590.083ZM321.209 524.015C322.921 547.223 334.835 572.671 342.972 590.083L345.69 588.813C337.495 571.279 325.865 546.349 324.201 523.794L321.209 524.015ZM313.899 533.155L323.662 525.059L321.747 522.75L311.984 530.845L313.899 533.155ZM102.929 502.559C215.163 493.083 289.307 519.214 312.155 533.277L313.728 530.723C290.212 516.249 215.391 490.053 102.677 499.57L102.929 502.559ZM-16.7035 442.333C-20.6177 454.527 -19.1197 472.161 -2.15288 485.438C14.6954 498.623 46.5652 507.318 102.929 502.559L102.677 499.57C46.5661 504.308 15.6444 495.557 -0.304027 483.076C-16.1339 470.688 -17.4378 454.437 -13.847 443.25L-16.7035 442.333ZM175.916 430.502L-15.3597 441.294L-15.1908 444.289L176.084 433.498L175.916 430.502ZM282.152 441.299L176.152 430.508L175.848 433.492L281.848 444.284L282.152 441.299ZM325.593 430.543L281.642 441.335L282.358 444.248L326.308 433.457L325.593 430.543ZM333.514 433.125L326.458 430.588L325.443 433.412L332.499 435.948L333.514 433.125ZM347.284 252.878C347.657 253.394 348.039 254.254 348.38 255.542C348.717 256.811 348.989 258.402 349.193 260.309C349.602 264.122 349.729 269.072 349.611 274.973C349.374 286.769 348.162 302.211 346.355 319.645C342.743 354.505 336.766 397.193 331.521 434.327L334.492 434.746C339.735 397.624 345.72 354.88 349.339 319.954C351.149 302.495 352.371 286.955 352.61 275.033C352.73 269.076 352.605 263.983 352.176 259.989C351.962 257.992 351.668 256.238 351.28 254.774C350.897 253.327 350.397 252.065 349.716 251.122L347.284 252.878ZM344.472 190.591C343.896 205.723 343.371 219.51 343.57 230.313C343.67 235.714 343.952 240.416 344.509 244.194C345.057 247.907 345.901 250.964 347.284 252.878L349.716 251.122C348.788 249.837 348.017 247.412 347.477 243.756C346.947 240.163 346.669 235.608 346.57 230.258C346.372 219.558 346.893 205.869 347.47 190.705L344.472 190.591ZM321.737 46.7914C328.402 50.7296 333.38 58.0917 337.017 68.0396C340.647 77.9704 342.875 90.2976 344.161 103.901C346.734 131.109 345.519 163.102 344.472 190.591L347.47 190.705C348.515 163.265 349.743 131.063 347.148 103.619C345.85 89.8957 343.59 77.2825 339.834 67.0096C336.085 56.7539 330.778 48.6491 323.263 44.2086L321.737 46.7914ZM176.798 -114.102C193.564 -91.6643 220.911 -56.7109 248.477 -24.7577C262.259 -8.78164 276.108 6.45873 288.725 19.0147C301.317 31.5461 312.765 41.4899 321.737 46.7914L323.263 44.2086C314.635 39.1101 303.408 29.3955 290.841 16.8883C278.298 4.40579 264.504 -10.7726 250.748 -26.7173C223.239 -58.6059 195.936 -93.5024 179.202 -115.898L176.798 -114.102ZM511.787 -51.4723L178.287 -116.472L177.713 -113.528L511.213 -48.5277L511.787 -51.4723ZM513 872.5V-50H510V872.5H513ZM322.12 824.451L511.12 873.951L511.88 871.049L322.88 821.549L322.12 824.451Z" fill="#035B21"/>
</svg>
